<svg xmlns="http://www.w3.org/2000/svg" viewBox="0 0 32 32" width="28" height="28">
  <circle cx="16" cy="16" r="16" fill="#fff"/>
  <path d="M28 16.1c0-.8-.1-1.7-.2-2.5H16v4.8h6.7c-.3 1.5-1.4 2.8-2.8 3.7v3h4.5c2.6-2.4 4.1-5.9 4.1-10z" fill="#4285F4"/>
  <path d="M16 29c3.4 0 6.2-1.1 8.2-3l-4.5-3c-1.2.8-2.7 1.3-3.7 1.3-2.8 0-5.2-1.9-6.1-4.4H5.3v2.8C7.5 26.6 11.5 29 16 29z" fill="#34A853"/>
  <path d="M9.9 19.9c-.2-.6-.4-1.3-.4-1.9s.1-1.3.4-1.9v-2.8H5.3C4.5 15.1 4 15.9 4 16.9c0 1 .5 1.8 1.3 2.5l4.6.5z" fill="#FBBC05"/>
  <path d="M16 10.9c1.9 0 3.2.8 4 1.5l3-3c-1.8-1.7-4.3-2.7-7-2.7-4.5 0-8.5 2.4-10.7 6.1l4.6 3.5c.9-2.5 3.3-4.4 6.1-4.4z" fill="#EA4335"/>
</svg>
